HIERARCHY
ROOT RootJoint
{
    OFFSET   0.000000   0.000000   0.000000
    CHANNELS 6 Xposition Yposition Zposition Xrotation Yrotation Zrotation
    JOINT pelvis_lowerback
    {
        OFFSET   0.000000   0.093605   0.000000
        CHANNELS 3 Xrotation Yrotation Zrotation
        JOINT lowerback_torso
        {
            OFFSET   0.000000   0.100000   0.000000
            CHANNELS 3 Xrotation Yrotation Zrotation
            JOINT torso_head
            {
                OFFSET   0.000000   0.282350   0.000000
                CHANNELS 3 Xrotation Yrotation Zrotation
                End Site
                {
                    OFFSET   0.000000   0.192650   0.000000
                }
            }
            JOINT rTorso_Clavicle
            {
                OFFSET  -0.001000   0.157500   0.000000
                CHANNELS 3 Xrotation Yrotation Zrotation
                JOINT rShoulder
                {
                    OFFSET  -0.117647   0.000000   0.000000
                    CHANNELS 3 Xrotation Yrotation Zrotation
                    JOINT rElbow
                    {
                        OFFSET  -0.245000   0.000000   0.000000
                        CHANNELS 3 Xrotation Yrotation Zrotation
                        JOINT rWrist
                        {
                            OFFSET  -0.240000   0.000000   0.000000
                            CHANNELS 3 Xrotation Yrotation Zrotation
                            End Site
                            {
                                OFFSET  -0.116353  -0.002500   0.000000
                            }
                        }
                    }
                }
            }
            JOINT lTorso_Clavicle
            {
                OFFSET   0.001000   0.157500   0.000000
                CHANNELS 3 Xrotation Yrotation Zrotation
                JOINT lShoulder
                {
                    OFFSET   0.117647   0.000000   0.000000
                    CHANNELS 3 Xrotation Yrotation Zrotation
                    JOINT lElbow
                    {
                        OFFSET   0.245000   0.000000   0.000000
                        CHANNELS 3 Xrotation Yrotation Zrotation
                        JOINT lWrist
                        {
                            OFFSET   0.240000   0.000000   0.000000
                            CHANNELS 3 Xrotation Yrotation Zrotation
                            End Site
                            {
                                OFFSET   0.116353  -0.002500   0.000000
                            }
                        }
                    }
                }
            }
        }
    }
    JOINT rHip
    {
        OFFSET  -0.100000  -0.051395   0.000000
        CHANNELS 3 Xrotation Yrotation Zrotation
        JOINT rKnee
        {
            OFFSET   0.000000  -0.410000   0.000000
            CHANNELS 3 Xrotation Yrotation Zrotation
            JOINT rAnkle
            {
                OFFSET   0.000000  -0.390000   0.000000
                CHANNELS 3 Xrotation Yrotation Zrotation
                JOINT rToeJoint
                {
                    OFFSET   0.000000  -0.050000   0.130000
                    CHANNELS 3 Xrotation Yrotation Zrotation
                    End Site
                    {
                        OFFSET  -0.010000   0.002000   0.060000
                    }
                }
            }
        }
    }
    JOINT lHip
    {
        OFFSET   0.100000  -0.051395   0.000000
        CHANNELS 3 Xrotation Yrotation Zrotation
        JOINT lKnee
        {
            OFFSET   0.000000  -0.410000   0.000000
            CHANNELS 3 Xrotation Yrotation Zrotation
            JOINT lAnkle
            {
                OFFSET   0.000000  -0.390000   0.000000
                CHANNELS 3 Xrotation Yrotation Zrotation
                JOINT lToeJoint
                {
                    OFFSET   0.000000  -0.050000   0.130000
                    CHANNELS 3 Xrotation Yrotation Zrotation
                    End Site
                    {
                        OFFSET   0.010000   0.002000   0.060000
                    }
                }
            }
        }
    }
}
MOTION
Frames: 10
Frame Time:   0.008333
 -2.376719   0.925631   3.975860   0.000000   0.000000   0.000000   0.000000   0.000000   0.000000   0.000000   0.000000   0.000000   0.000000   0.000000   0.000000   0.000000   0.000000   0.000000   0.000000   0.000000   0.000000   0.000000   0.000000   0.000000   0.000000   0.000000   0.000000   0.000000   0.000000   0.000000   0.000000   0.000000   0.000000   0.000000   0.000000   0.000000   0.000000   0.000000   0.000000   0.000000   0.000000   0.000000   0.000000   0.000000   0.000000   0.000000   0.000000   0.000000   0.000000   0.000000   0.000000   0.000000   0.000000   0.000000   0.000000   0.000000   0.000000   0.000000   0.000000   0.000000   0.000000   0.000000   0.000000
 -2.376376   0.926033   3.975282  -0.746679   0.363169  -0.094628   0.813079  -0.059733   0.052546   0.303315   0.143503   0.229267  -0.023653   0.490060  -0.008208   0.134540  -0.585746   0.048871   0.860389   0.004443   2.134967   0.004327   0.209494  -0.002501   0.497906   0.045163  -3.042325  -0.529034  -0.106997  -0.406297   0.170558  -0.666937  -1.900454   0.040200  -2.168052   0.001047   0.398702   1.357694   2.896476  -0.430131   0.127706   0.094406   2.701381   0.000333   0.011583  -1.943962   0.141968   0.515692  -0.778498   0.003569  -0.004292   0.471390  -0.291181  -0.012496   2.152459   0.002096   0.001293  -3.074503  -0.411770   0.195281   0.460586  -0.000372  -0.001348
 -2.375819   0.926668   3.974821  -1.629687   1.054782  -0.209068   1.616170  -0.277284   0.167478   0.737624   0.097417   0.507076   0.012541   0.984594   0.007555   0.279331  -1.171557   0.766757   1.710709   0.013945   4.801469   0.009583   0.402119  -0.004267   1.035889   0.097151  -5.452568  -1.034633  -0.452780  -1.492725   0.286251  -1.545503  -4.223218   0.092043  -4.340995   0.001758   0.789175   1.833827   5.103206  -1.024336   0.260664   0.221779   5.508388   0.002118   0.029481  -3.751924   0.263273   0.999950  -1.540502   0.006276  -0.009682   1.343499  -0.588537  -0.078985   4.529978   0.006392   0.008784  -5.949420  -0.813466   0.348873   0.754157  -0.000235  -0.001082
 -2.375128   0.927127   3.974462  -2.490008   1.951522  -0.322795   2.348060  -0.625721   0.325864   1.156157  -0.106454   0.806054   0.051222   1.449997   0.031084   0.423212  -1.721533   1.912023   2.546352   0.057584   7.820687   0.014657   0.581554  -0.005375   1.561737   0.153051  -7.077417  -1.517474  -0.932432  -2.987006   0.345363  -2.503668  -6.747136   0.141382  -6.425859   0.001454   1.176331   1.879708   6.506157  -1.829957   0.391455   0.362259   8.106184   0.005382   0.046829  -5.439299   0.362281   1.454270  -2.237796   0.008050  -0.014595   2.482312  -0.868374  -0.176500   6.887991   0.012141   0.018697  -8.625514  -1.195315   0.469912   1.034646   0.000104  -0.000287
 -2.374363   0.927116   3.974182  -3.296417   2.970096  -0.427819   3.014648  -1.069693   0.514715   1.535439  -0.424026   1.116255   0.079988   1.884583   0.055694   0.565229  -2.240205   3.309881   3.368941   0.138539  11.079999   0.019000   0.748772  -0.005995   2.071322   0.217480  -8.101810  -1.980402  -1.481818  -4.707884   0.351451  -3.486501  -9.343365   0.182015  -8.404363   0.000904   1.557986   1.705789   7.311174  -2.838618   0.516197   0.500491  10.460201   0.009499   0.060771  -7.017853   0.441384   1.880754  -2.887609   0.009135  -0.018684   3.828327  -1.133382  -0.283069   9.183473   0.018604   0.028344 -11.119431  -1.556551   0.564958   1.296200   0.000531   0.000651
 -2.373551   0.926409   3.973965  -4.045247   4.055189  -0.521988   3.626942  -1.582101   0.728776   1.879423  -0.823799   1.438721   0.099699   2.289993   0.077028   0.706182  -2.736225   4.860165   4.163104   0.254678  14.441539   0.022310   0.903373  -0.006230   2.563344   0.286674  -8.677714  -2.425774  -2.061534  -6.536752   0.310015  -4.462594 -11.930543   0.211797 -10.271455   0.000726   1.930395   1.412338   7.709584  -4.023829   0.632992   0.624351  12.582393   0.013818   0.070533  -8.494790   0.503166   2.281111  -3.493176   0.009677  -0.021796   5.341437  -1.386928  -0.384426  11.407765   0.025213   0.036397 -13.444250  -1.897281   0.639015   1.538780   0.000982   0.001526
 -2.372684   0.924829   3.973797  -4.738662   5.163107  -0.607236   4.194065  -2.142833   0.969989   2.195451  -1.283309   1.783040   0.113367   2.668319   0.092137   0.848352  -3.217610   6.513526   4.897703   0.399035  17.728105   0.024452   1.045018  -0.006143   3.036898   0.356882  -8.894120  -2.855208  -2.645994  -8.396652   0.227283  -5.412399 -14.458788   0.230761 -12.027493   0.001262   2.290555   1.052976   7.841635  -5.356288   0.741550   0.725531  14.492504   0.017837   0.076187  -9.876232   0.550154   2.656931  -4.055484   0.009787  -0.023901   6.988237  -1.631144  -0.474426  13.557856   0.031571   0.042194 -15.611674  -2.217939   0.696107   1.763694   0.001427   0.002234
 -2.372282   0.921704   3.972704  -4.918784   5.761893  -0.773090   4.588143  -2.339479   1.231767   2.253731  -1.651156   2.015760  -0.064809   2.840049   0.054209   0.985996  -3.535071   7.628095   5.691338   0.449528  20.928699   0.030680   1.321913  -0.007402   3.377147   0.463613  -8.142858  -3.022335  -3.071040  -9.255480   0.190328  -6.430104 -17.168280   0.241944 -13.925816   0.009578   2.651489   0.590790   7.368379  -7.711631   0.653018   0.793650  17.118429   0.022929   0.071973 -10.835104   0.440758   3.113198  -4.077676   0.007870  -0.019222   8.617185  -1.839928  -0.354822  13.762492   0.025765   0.034292 -17.165158  -2.447293   0.657906   2.124334   0.001857   0.002200
 -2.372159   0.917290   3.971154  -5.018040   6.373856  -0.942818   5.051599  -2.553534   1.465088   2.308899  -2.008481   2.231499  -0.248134   2.990900   0.002238   1.107805  -3.800138   8.502146   6.423225   0.547595  23.808326   0.033666   1.584469  -0.008373   3.704551   0.598453  -7.444641  -3.208871  -3.504121  -9.807422   0.103591  -7.413112 -19.540279   0.239933 -15.719577   0.017869   3.028948   0.006938   7.036407 -10.136757   0.533223   0.780548  19.567200   0.027590   0.066848 -11.718586   0.323097   3.536125  -4.047629   0.006189  -0.015276  10.123814  -2.057311  -0.077363  13.689651   0.020407   0.027311 -18.629207  -2.660344   0.616755   2.445196   0.001691   0.002158
 -2.372201   0.911732   3.969396  -5.097015   7.003857  -1.098344   5.560787  -2.770038   1.673923   2.400619  -2.357737   2.433155  -0.407998   3.130542  -0.051958   1.217596  -4.033746   9.197188   7.097622   0.675794  26.408995   0.034434   1.831150  -0.009024   4.017975   0.732974  -6.942021  -3.419066  -3.941145 -10.166201  -0.028733  -8.354639 -21.643321   0.230366 -17.407054   0.024905   3.408274  -0.621312   6.952343 -12.506210   0.429796   0.680044  21.809219   0.031616   0.061846 -12.543257   0.205444   3.928514  -4.018705   0.004873  -0.012111  11.524422  -2.255345   0.308431  13.568585   0.016175   0.021525 -19.999336  -2.855633   0.574277   2.733201   0.001246   0.002182
